<svg width="15" height="15" viewBox="0 0 15 15" fill="none" xmlns="http://www.w3.org/2000/svg">
<path d="M11.25 1.00493C12.3812 1.65807 13.3222 2.59532 13.9799 3.7239C14.6375 4.85248 14.989 6.13325 14.9996 7.43943C15.0101 8.74563 14.6794 10.0319 14.04 11.1709C13.4007 12.31 12.4749 13.2623 11.3544 13.9336C10.2339 14.605 8.9575 14.972 7.65157 14.9984C6.34562 15.0249 5.05541 14.7098 3.90867 14.0843C2.76192 13.4589 1.7984 12.5448 1.1135 11.4325C0.4286 10.3203 0.04606 9.04843 0.00374997 7.74293L0 7.49993L0.00374997 7.25693C0.04575 5.96167 0.42266 4.6994 1.09773 3.59317C1.7728 2.48694 2.72299 1.57451 3.85567 0.944838C4.98835 0.315158 6.26486 -0.0102824 7.56075 0.000247646C8.8566 0.0107776 10.1277 0.356918 11.25 1.00493ZM6.38325 5.35493C6.22611 5.26138 6.04021 5.22848 5.86051 5.2624C5.68081 5.29632 5.51969 5.39472 5.40746 5.53911C5.29523 5.6835 5.23962 5.86391 5.25109 6.04643C5.26257 6.22894 5.34033 6.40098 5.46975 6.53018L6.43875 7.49993L5.46975 8.46968L5.4075 8.54013C5.29094 8.69093 5.23613 8.88033 5.2542 9.07003C5.27227 9.25973 5.36187 9.43543 5.50479 9.56153C5.64772 9.68753 5.83325 9.75443 6.02371 9.74863C6.21417 9.74283 6.39528 9.66473 6.53025 9.53013L7.5 8.56113L8.46975 9.53013L8.5402 9.59243C8.691 9.70903 8.8805 9.76383 9.0701 9.74573C9.2598 9.72763 9.4355 9.63803 9.5616 9.49513C9.6876 9.35223 9.7545 9.16663 9.7487 8.97623C9.7429 8.78573 9.6648 8.60463 9.5302 8.46968L8.5612 7.49993L9.5302 6.53018L9.5925 6.45968C9.7091 6.30893 9.7639 6.11947 9.7458 5.92978C9.7277 5.74009 9.6381 5.56439 9.4952 5.43836C9.3523 5.31234 9.1667 5.24544 8.9763 5.25125C8.7858 5.25707 8.6047 5.33517 8.46975 5.46968L7.5 6.43868L6.53025 5.46968L6.45975 5.40743L6.38325 5.35493Z" fill="#B31500"/>
</svg>
