<svg width="14" height="16" viewBox="0 0 14 16" fill="none" xmlns="http://www.w3.org/2000/svg">
<g clip-path="url(#clip0_4_196)">
<path fill-rule="evenodd" clip-rule="evenodd" d="M0.333252 3.99985C0.333252 3.63166 0.631729 3.33318 0.999919 3.33318H12.9999C13.3681 3.33318 13.6665 3.63166 13.6665 3.99985C13.6665 4.36804 13.3681 4.66651 12.9999 4.66651H0.999919C0.631729 4.66651 0.333252 4.36804 0.333252 3.99985Z" fill="#ECB602"/>
<path fill-rule="evenodd" clip-rule="evenodd" d="M5.66675 1.99984C5.48994 1.99984 5.32037 2.07007 5.19534 2.1951C5.07032 2.32012 5.00008 2.48969 5.00008 2.6665V3.33317H9.00008V2.6665C9.00008 2.48969 8.92984 2.32012 8.80482 2.1951C8.67979 2.07007 8.51022 1.99984 8.33341 1.99984H5.66675ZM10.3334 3.33317V2.6665C10.3334 2.13607 10.1227 1.62736 9.74763 1.25229C9.37255 0.877218 8.86385 0.666504 8.33341 0.666504H5.66675C5.13631 0.666504 4.62761 0.877218 4.25253 1.25229C3.87746 1.62736 3.66675 2.13607 3.66675 2.6665V3.33317H2.33341C1.96522 3.33317 1.66675 3.63165 1.66675 3.99984V13.3332C1.66675 13.8636 1.87746 14.3723 2.25253 14.7474C2.62761 15.1225 3.13631 15.3332 3.66675 15.3332H10.3334C10.8638 15.3332 11.3726 15.1225 11.7476 14.7474C12.1227 14.3723 12.3334 13.8636 12.3334 13.3332V3.99984C12.3334 3.63165 12.0349 3.33317 11.6667 3.33317H10.3334ZM3.00008 4.6665V13.3332C3.00008 13.51 3.07032 13.6795 3.19534 13.8046C3.32037 13.9296 3.48994 13.9998 3.66675 13.9998H10.3334C10.5102 13.9998 10.6798 13.9296 10.8048 13.8046C10.9298 13.6795 11.0001 13.51 11.0001 13.3332V4.6665H3.00008Z" fill="#ECB602"/>
<path fill-rule="evenodd" clip-rule="evenodd" d="M5.66667 6.6665C6.03486 6.6665 6.33333 6.96498 6.33333 7.33317V11.3332C6.33333 11.7014 6.03486 11.9998 5.66667 11.9998C5.29848 11.9998 5 11.7014 5 11.3332V7.33317C5 6.96498 5.29848 6.6665 5.66667 6.6665Z" fill="#ECB602"/>
<path fill-rule="evenodd" clip-rule="evenodd" d="M8.33341 6.6665C8.7016 6.6665 9.00008 6.96498 9.00008 7.33317V11.3332C9.00008 11.7014 8.7016 11.9998 8.33341 11.9998C7.96522 11.9998 7.66675 11.7014 7.66675 11.3332V7.33317C7.66675 6.96498 7.96522 6.6665 8.33341 6.6665Z" fill="#ECB602"/>
</g>
<defs>
<clipPath id="clip0_4_196">
<rect width="14" height="16" fill="white"/>
</clipPath>
</defs>
</svg>
