<svg width="21" height="20" viewBox="0 0 21 20" fill="none" xmlns="http://www.w3.org/2000/svg">
<path fill-rule="evenodd" clip-rule="evenodd" d="M14.3953 3.74173C12.485 3.74173 10.5746 3.74672 8.66398 3.73568C8.41153 3.73426 8.29205 3.80474 8.18673 4.07348C7.7075 5.29972 6.82343 5.93616 5.60034 5.96926C4.46743 5.99987 3.44545 5.24704 3.00868 4.07775C2.90763 3.80723 2.78816 3.7275 2.53505 3.73497C1.95214 3.75206 1.36857 3.74565 0.785332 3.73639C0.30709 3.72892 0.000988489 3.42601 1.06535e-06 2.98285C-0.000657217 2.53898 0.303798 2.235 0.78237 2.22717C1.38009 2.21756 1.97913 2.24319 2.57553 2.21115C2.71607 2.20368 2.91553 2.0581 2.97412 1.91963C3.49252 0.695524 4.35553 -0.000355812 5.60067 1.36486e-07C6.8468 0.000356085 7.73087 0.690897 8.20319 1.93494C8.32069 2.24461 8.49415 2.22432 8.71039 2.22432C12.458 2.22397 16.2059 2.22397 19.9539 2.22397C20.0124 2.22397 20.0707 2.22219 20.129 2.22254C20.674 2.22895 20.9999 2.51407 20.9992 2.98285C20.9985 3.45164 20.6776 3.73675 20.1263 3.73782C18.216 3.74102 16.3057 3.73889 14.3953 3.73889C14.3953 3.73995 14.3953 3.74067 14.3953 3.74173ZM6.99557 3.01489C7.01499 2.18766 6.40509 1.49249 5.64049 1.46971C4.87096 1.44693 4.23012 2.09511 4.20313 2.92412C4.17581 3.75668 4.77485 4.46182 5.53484 4.49207C6.32544 4.52375 6.97549 3.86632 6.99557 3.01489Z" fill="white"/>
<path fill-rule="evenodd" clip-rule="evenodd" d="M16.7229 10.581C16.6768 10.6967 16.6284 10.8266 16.5735 10.9537C16.0607 12.1426 15.1871 12.7825 13.9841 12.7776C12.7985 12.7726 11.9234 12.1376 11.4461 10.9562C11.3079 10.6138 11.144 10.5447 10.8313 10.5458C7.57903 10.5575 4.32678 10.5532 1.07454 10.5532C0.986987 10.5532 0.899436 10.555 0.811884 10.5529C0.309944 10.5397 -0.00965179 10.2347 0.000222446 9.7787C0.0100967 9.33946 0.318831 9.04438 0.801023 9.04153C1.89476 9.03477 2.98849 9.03833 4.08256 9.03868C6.35758 9.03868 8.63293 9.03441 10.908 9.0458C11.1775 9.04687 11.3102 8.97354 11.4194 8.68558C11.8654 7.51273 12.8874 6.76987 14.0183 6.80831C15.2418 6.8496 16.1242 7.49137 16.5945 8.72046C16.7041 9.00593 16.8447 9.04438 17.0823 9.04224C18.1033 9.0337 19.124 9.03619 20.145 9.04082C20.6848 9.04295 21.0103 9.34373 20.9998 9.81465C20.9895 10.2671 20.6726 10.549 20.1548 10.5522C19.0321 10.5593 17.9094 10.5604 16.7867 10.565C16.7723 10.565 16.7581 10.5718 16.7229 10.581ZM15.3991 9.81714C15.4106 8.98921 14.8004 8.30472 14.0308 8.283C13.2695 8.26165 12.6231 8.92585 12.6024 9.75094C12.5816 10.5799 13.1902 11.2844 13.9479 11.3089C14.7362 11.3345 15.3872 10.6654 15.3991 9.81714Z" fill="white"/>
<path fill-rule="evenodd" clip-rule="evenodd" d="M14.4349 17.3679C12.539 17.3679 10.6432 17.3729 8.74766 17.3626C8.45801 17.3612 8.29805 17.4217 8.16442 17.7527C7.68058 18.949 6.79947 19.5976 5.59251 19.5937C4.38654 19.5898 3.51103 18.9384 3.02719 17.7406C2.90508 17.4377 2.76651 17.3505 2.48082 17.3619C1.91272 17.3843 1.34331 17.3765 0.774882 17.3658C0.30059 17.3572 -0.00584013 17.044 8.44031e-05 16.6012C0.00600894 16.1581 0.31211 15.8633 0.793643 15.8566C1.39136 15.848 1.98941 15.8423 2.58713 15.8573C2.81259 15.863 2.90771 15.7807 2.99428 15.5508C3.45014 14.3434 4.4583 13.5892 5.60766 13.6237C6.83107 13.6604 7.71416 14.2986 8.18878 15.5273C8.29542 15.8035 8.42576 15.858 8.67097 15.8576C12.3603 15.8505 16.05 15.853 19.7393 15.8534C19.9289 15.8534 20.1191 15.8448 20.3081 15.8591C20.7185 15.89 21.0022 16.2079 20.9989 16.6179C20.9956 17.0273 20.7109 17.3555 20.2969 17.3637C19.4368 17.3804 18.5761 17.3708 17.7158 17.3711C16.622 17.3715 15.5283 17.3711 14.4346 17.3711L14.4349 17.3679ZM4.20255 16.5845C4.18906 17.4163 4.79204 18.098 5.56289 18.1229C6.32485 18.1475 6.97754 17.4822 6.99663 16.6621C7.01638 15.8074 6.39957 15.1116 5.61193 15.1005C4.84504 15.0898 4.21605 15.7519 4.20255 16.5845Z" fill="white"/>
</svg>
