<svg width="16" height="16" viewBox="0 0 16 16" fill="none" xmlns="http://www.w3.org/2000/svg">
<path d="M11.75 1.50492C12.8812 2.15806 13.8222 3.09531 14.4799 4.22389C15.1375 5.35248 15.489 6.63325 15.4996 7.93942C15.5101 9.2456 15.1794 10.5319 14.54 11.6709C13.9007 12.81 12.9749 13.7623 11.8544 14.4337C10.7339 15.105 9.4575 15.472 8.15157 15.4985C6.84562 15.5249 5.55541 15.2098 4.40867 14.5844C3.26192 13.9589 2.2984 13.0448 1.6135 11.9326C0.9286 10.8203 0.54606 9.5485 0.50375 8.24292L0.5 7.99992L0.50375 7.75692C0.54575 6.46166 0.92266 5.19939 1.59773 4.09316C2.2728 2.98694 3.22299 2.07451 4.35567 1.44483C5.48835 0.815148 6.76486 0.489718 8.06075 0.500248C9.3566 0.510778 10.6277 0.856918 11.75 1.50492ZM10.7802 5.96967C10.6511 5.84054 10.4793 5.76296 10.297 5.7515C10.1147 5.74004 9.9346 5.79548 9.7902 5.90742L9.7198 5.96967L7.25 8.43867L6.28025 7.46967L6.20975 7.40742C6.06544 7.29556 5.88528 7.24019 5.70305 7.25168C5.52083 7.26318 5.34906 7.34076 5.21995 7.46987C5.09084 7.59897 5.01326 7.77075 5.00177 7.95297C4.99027 8.1352 5.04564 8.31536 5.1575 8.45967L5.21975 8.53017L6.71975 10.0302L6.79025 10.0924C6.92178 10.1945 7.08352 10.2499 7.25 10.2499C7.41648 10.2499 7.57822 10.1945 7.70975 10.0924L7.78025 10.0302L10.7802 7.03017L10.8425 6.95967C10.9544 6.81537 11.0099 6.63518 10.9984 6.45291C10.987 6.27064 10.9094 6.09881 10.7802 5.96967Z" fill="#04763F"/>
</svg>
