<svg width="16" height="10" viewBox="0 0 16 10" fill="none" xmlns="http://www.w3.org/2000/svg">
<path fill-rule="evenodd" clip-rule="evenodd" d="M0.666504 5C1.81984 2.07333 4.66651 0 7.99984 0C11.3332 0 14.1799 2.07333 15.3332 5C14.1799 7.9267 11.3332 10 7.99984 10C4.66651 10 1.81984 7.9267 0.666504 5ZM13.8799 5C12.7799 2.75333 10.5265 1.33333 7.99984 1.33333C5.47317 1.33333 3.21984 2.75333 2.11984 5C3.21984 7.2467 5.47317 8.6667 7.99984 8.6667C10.5265 8.6667 12.7799 7.2467 13.8799 5ZM7.99984 3.33333C8.91984 3.33333 9.66651 4.08 9.66651 5C9.66651 5.92 8.91984 6.66667 7.99984 6.66667C7.07984 6.66667 6.33317 5.92 6.33317 5C6.33317 4.08 7.07984 3.33333 7.99984 3.33333ZM4.99984 5C4.99984 3.34667 6.34651 2 7.99984 2C9.65317 2 10.9999 3.34667 10.9999 5C10.9999 6.65333 9.65317 8 7.99984 8C6.34651 8 4.99984 6.65333 4.99984 5Z" fill="#ECB602"/>
</svg>
