<svg width="15" height="15" viewBox="0 0 15 15" fill="none" xmlns="http://www.w3.org/2000/svg">
<path d="M7.41713 9.98268L7.40654 9.978L7.39575 9.97382C7.36631 9.9624 7.33931 9.94551 7.31617 9.92406L4.32105 6.92895C4.29755 6.90545 4.27891 6.87755 4.2662 6.84685L3.80426 7.03819L4.26619 6.84684C4.25348 6.81614 4.24693 6.78323 4.24693 6.75C4.24693 6.71677 4.25348 6.68386 4.26619 6.65316L3.80426 6.46181L4.2662 6.65315C4.27891 6.62245 4.29755 6.59455 4.32105 6.57105C4.34455 6.54755 4.37245 6.52891 4.40315 6.5162C4.43386 6.50348 4.46677 6.49693 4.5 6.49693C4.53324 6.49693 4.56614 6.50348 4.59685 6.51619C4.62744 6.52887 4.65525 6.54742 4.6787 6.5708C4.67878 6.57089 4.67886 6.57097 4.67895 6.57105L6.39568 8.29528L7.25 9.15334V7.9425V0.75C7.25 0.683696 7.27634 0.620108 7.32322 0.573224C7.37011 0.526339 7.4337 0.5 7.5 0.5C7.5663 0.5 7.62989 0.526339 7.67678 0.573223C7.72366 0.620108 7.75 0.683696 7.75 0.75V7.9425V9.15334L8.60432 8.29528L10.3211 6.57105C10.3211 6.57099 10.3212 6.57093 10.3212 6.57087C10.3687 6.52353 10.433 6.49693 10.5 6.49693C10.5671 6.49693 10.6315 6.52359 10.6789 6.57105C10.7264 6.61851 10.7531 6.68288 10.7531 6.75C10.7531 6.81712 10.7264 6.88149 10.6789 6.92895L7.68383 9.92406C7.66069 9.94551 7.63369 9.9624 7.60425 9.97382L7.59346 9.978L7.58287 9.98268C7.55677 9.99422 7.52854 10.0002 7.5 10.0002C7.47146 10.0002 7.44323 9.99422 7.41713 9.98268ZM14.0732 9.57323C14.1201 9.52634 14.1837 9.5 14.25 9.5C14.3163 9.5 14.3799 9.52634 14.4268 9.57322C14.4737 9.62011 14.5 9.68369 14.5 9.75V12.75C14.5 13.2141 14.3156 13.6592 13.9874 13.9874C13.6592 14.3156 13.2141 14.5 12.75 14.5H2.25C1.78587 14.5 1.34075 14.3156 1.01256 13.9874C0.684375 13.6592 0.5 13.2141 0.5 12.75V9.75C0.5 9.6837 0.526339 9.62011 0.573223 9.57322C0.620108 9.52634 0.683696 9.5 0.75 9.5C0.816304 9.5 0.879892 9.52634 0.926776 9.57322C0.973661 9.62011 1 9.6837 1 9.75V12.75C1 13.0815 1.1317 13.3995 1.36612 13.6339C1.60054 13.8683 1.91848 14 2.25 14H12.75C13.0815 14 13.3995 13.8683 13.6339 13.6339C13.8683 13.3995 14 13.0815 14 12.75V9.75C14 9.68369 14.0263 9.62011 14.0732 9.57323Z" fill="#ECB602" stroke="#ECB602"/>
</svg>
