<svg width="17" height="16" viewBox="0 0 17 16" fill="none" xmlns="http://www.w3.org/2000/svg">
<path fill-rule="evenodd" clip-rule="evenodd" d="M3.16675 3.33333C2.98994 3.33333 2.82037 3.40357 2.69534 3.5286C2.57032 3.65362 2.50008 3.82319 2.50008 4V13.3333C2.50008 13.5101 2.57032 13.6797 2.69534 13.8047C2.82037 13.9298 2.98994 14 3.16675 14H12.5001C12.6769 14 12.8465 13.9298 12.9715 13.8047C13.0965 13.6797 13.1668 13.5101 13.1668 13.3333V9.77333C13.1668 9.40514 13.4652 9.10667 13.8334 9.10667C14.2016 9.10667 14.5001 9.40514 14.5001 9.77333V13.3333C14.5001 13.8638 14.2894 14.3725 13.9143 14.7475C13.5392 15.1226 13.0305 15.3333 12.5001 15.3333H3.16675C2.63631 15.3333 2.12761 15.1226 1.75253 14.7475C1.37746 14.3725 1.16675 13.8638 1.16675 13.3333V4C1.16675 3.46957 1.37746 2.96086 1.75253 2.58579C2.12761 2.21071 2.63631 2 3.16675 2H6.72675C7.09494 2 7.39341 2.29848 7.39341 2.66667C7.39341 3.03486 7.09494 3.33333 6.72675 3.33333H3.16675Z" fill="#ECB602"/>
<path fill-rule="evenodd" clip-rule="evenodd" d="M12.0287 0.861766C12.289 0.601417 12.7111 0.601417 12.9715 0.861766L15.6382 3.52843C15.8985 3.78878 15.8985 4.21089 15.6382 4.47124L8.97148 11.1379C8.84646 11.2629 8.67689 11.3332 8.50008 11.3332H5.83341C5.46522 11.3332 5.16675 11.0347 5.16675 10.6665V7.99984C5.16675 7.82303 5.23698 7.65346 5.36201 7.52843L12.0287 0.861766ZM6.50008 8.27598V9.99984H8.22394L14.2239 3.99984L12.5001 2.27598L6.50008 8.27598Z" fill="#ECB602"/>
</svg>
